PathFileType	4	(X/Y/Z)	/Users/itak/Documents/Research/Walk-IL/dataset/trc/00215_00009.trc
DataRate	CameraRate	NumFrames	NumMarkers	Units	OrigDataRate	OrigDataStartFrame	OrigNumFrames
100.000000	100.000000	4	53	mm	100.000000	74	595
Frame#	Time	RPSI			LPSI			L3			STRN			T10			C7			CLAV			RBAK			LBAK			LSHO			LUPA			LAEL			LAOL			LWTS			LWPS			LFRA			LIFD			LHPS			LHTS			RSHO			RUPA			RAEL			RAOL			RWTS			RWPS			RFRA			RIFD			RHTS			RHPS			RBHD			LFHD			RFHD			LBHD			LHIP			RHIP			RASI			LASI			LKNE			LTHI			LANK			LTIP			LTOE			LMT1			LMT5			LHEE			RKNE			RTHI			RANK			RTIP			RTOE			RMT1			RMT5			RHEE			
		X1	Y1	Z1	X2	Y2	Z2	X3	Y3	Z3	X4	Y4	Z4	X5	Y5	Z5	X6	Y6	Z6	X7	Y7	Z7	X8	Y8	Z8	X9	Y9	Z9	X10	Y10	Z10	X11	Y11	Z11	X12	Y12	Z12	X13	Y13	Z13	X14	Y14	Z14	X15	Y15	Z15	X16	Y16	Z16	X17	Y17	Z17	X18	Y18	Z18	X19	Y19	Z19	X20	Y20	Z20	X21	Y21	Z21	X22	Y22	Z22	X23	Y23	Z23	X24	Y24	Z24	X25	Y25	Z25	X26	Y26	Z26	X27	Y27	Z27	X28	Y28	Z28	X29	Y29	Z29	X30	Y30	Z30	X31	Y31	Z31	X32	Y32	Z32	X33	Y33	Z33	X34	Y34	Z34	X35	Y35	Z35	X36	Y36	Z36	X37	Y37	Z37	X38	Y38	Z38	X39	Y39	Z39	X40	Y40	Z40	X41	Y41	Z41	X42	Y42	Z42	X43	Y43	Z43	X44	Y44	Z44	X45	Y45	Z45	X46	Y46	Z46	X47	Y47	Z47	X48	Y48	Z48	X49	Y49	Z49	X50	Y50	Z50	X51	Y51	Z51	X52	Y52	Z52	X53	Y53	Z53	

75	0.74	-1710.047485351562	1050.074340820312	-106.1541519165039	-1708.486938476562	1056.333740234375	-226.7310485839844	-1708.422119140625	1143.70068359375	-175.6621398925781	-1445.414184570312	1305.98388671875	-189.6396789550781	-1702.73779296875	1268.775268554688	-160.9867095947266	-1615.740844726562	1523.457885742188	-163.6866302490234	-1458.265258789062	1426.872192382812	-182.6409759521484	-1696.7216796875	1391.527587890625	-83.62924957275391	-1651.088012695312	1492.80859375	-271.9996948242188	-1568.184692382812	1487.679931640625	-337.2037353515625	-1624.1865234375	1377.924682617188	-415.1051025390625	-1649.21044921875	1172.03955078125	-451.0608825683594	-1713.2001953125	1161.8876953125	-392.5854797363281	-1568.787475585938	930.6336059570312	-416.4036865234375	-1611.295654296875	917.3908081054688	-488.9166870117188	-1639.69091796875	1063.6513671875	-471.2155151367188	-1576.73681640625	735.421875	-428.8379821777344	-1598.82568359375	827.868408203125	-488.9198913574219	-1544.75146484375	828.4690551757812	-446.8156127929688	-1541.939697265625	1472.604248046875	-3.881863355636597	-1555.812866210938	1408.836303710938	65.21304321289062	-1576.729370117188	1127.666137695312	106.9418334960938	-1628.70849609375	1123.21923828125	27.14909172058105	-1449.193603515625	915.6104125976562	30.75030899047852	-1489.473266601562	897.1089477539062	102.9962005615234	-1547.492919921875	1058.689575195312	111.3141632080078	-1432.398071289062	723.8856201171875	16.87259292602539	-1403.857788085938	795.46826171875	35.84484100341797	-1446.690551757812	792.082763671875	93.73814392089844	-1575.443725585938	1668.680419921875	-133.0198669433594	-1363.758056640625	1710.546630859375	-205.8333435058594	-1375.047729492188	1709.628173828125	-106.7509841918945	-1515.478881835938	1674.775512695312	-259.5670776367188	-1601.338256835938	995.7910766601562	-364.2422180175781	-1619.748779296875	1003.287658691406	5.017182350158691	-1517.1162109375	1043.049072265625	-29.78156852722168	-1504.721313476562	1032.57373046875	-310.4976806640625	-1432.645141601562	527.9840698242188	-308.6086120605469	-1475.906127929688	667.3008422851562	-338.5521545410156	-1633.781982421875	83.92852783203125	-342.8847045898438	-1532.233032226562	317.7894287109375	-334.2075805664062	-1427.364868164062	65.50370788574219	-280.0341491699219	-1496.8935546875	60.3422966003418	-240.4695281982422	-1508.30224609375	67.13918304443359	-353.8199768066406	-1697.735595703125	98.99519348144531	-295.0790100097656	-1614.38818359375	509.1214599609375	-56.54570770263672	-1573.738159179688	774.1569213867188	1.845265507698059	-1724.576904296875	37.48697280883789	-113.3008499145508	-1618.734741210938	393.10595703125	-81.59078216552734	-1511.187255859375	47.54964065551758	-145.6773376464844	-1564.46728515625	45.18198013305664	-191.1995391845703	-1615.620361328125	39.3422966003418	-81.18691253662109	-1784.37744140625	39.84418487548828	-176.1498565673828	
76	0.75	-1707.96435546875	1049.997436523438	-105.8579864501953	-1706.521850585938	1056.363403320312	-226.4561004638672	-1706.191284179688	1143.8974609375	-175.01416015625	-1443.241943359375	1305.643432617188	-189.6479797363281	-1700.336669921875	1268.81982421875	-159.9970245361328	-1612.912963867188	1523.381469726562	-162.7692413330078	-1455.595581054688	1426.669067382812	-182.4933471679688	-1693.767822265625	1391.497802734375	-82.43277740478516	-1648.721069335938	1492.915283203125	-270.957275390625	-1566.118896484375	1487.757934570312	-336.5342102050781	-1622.789184570312	1378.226806640625	-414.2523498535156	-1648.794799804688	1172.459838867188	-450.16943359375	-1712.520385742188	1162.498168945312	-391.3733215332031	-1568.510986328125	930.9695434570312	-415.6970825195312	-1611.3720703125	917.7133178710938	-488.0116882324219	-1639.517822265625	1064.027709960938	-470.3187561035156	-1576.629760742188	735.770263671875	-427.8879699707031	-1598.929809570312	828.1699829101562	-487.9600524902344	-1544.78125	828.8284301757812	-446.0966186523438	-1538.454711914062	1472.275024414062	-3.378714323043823	-1551.865356445312	1408.397216796875	65.68545532226562	-1571.31884765625	1126.98388671875	106.9970092773438	-1624.016235351562	1122.530883789062	27.60669136047363	-1443.077514648438	916.0362548828125	28.91711044311523	-1482.690551757812	897.02197265625	101.552619934082	-1541.64208984375	1058.142456054688	110.8876495361328	-1425.003173828125	724.4286499023438	14.32807922363281	-1396.841430664062	796.2295532226562	33.32509994506836	-1439.23583984375	792.2708740234375	91.52870178222656	-1572.56982421875	1668.494995117188	-132.6170196533203	-1360.909545898438	1710.287963867188	-205.5336151123047	-1372.14404296875	1709.41552734375	-106.4350433349609	-1512.616577148438	1674.49853515625	-259.1690368652344	-1599.102172851562	996.165283203125	-363.904052734375	-1617.880126953125	1002.945739746094	5.394347667694092	-1515.07568359375	1042.787353515625	-29.42785835266113	-1502.581909179688	1032.794067382812	-310.1075744628906	-1426.7666015625	529.5969848632812	-307.4955139160156	-1471.29345703125	668.5175170898438	-337.8780517578125	-1623.586059570312	83.43334197998047	-340.9181213378906	-1524.3837890625	318.3776245117188	-332.8051147460938	-1416.959838867188	66.72477722167969	-278.2359313964844	-1486.446411132812	61.07697677612305	-238.5940704345703	-1498.014770507812	67.55010986328125	-351.9966430664062	-1687.788818359375	98.41826629638672	-293.2417907714844	-1613.36328125	508.9544982910156	-56.54829788208008	-1572.043334960938	773.7262573242188	1.7821204662323	-1724.56982421875	37.521240234375	-113.3446578979492	-1617.991943359375	392.868408203125	-81.58820343017578	-1511.226928710938	47.53200149536133	-145.6862335205078	-1564.453735351562	45.16844940185547	-191.2435150146484	-1615.623779296875	39.36471557617188	-81.19630432128906	-1784.3837890625	39.86940002441406	-176.1793518066406	
77	0.76	-1705.79541015625	1049.913818359375	-105.5801696777344	-1704.460693359375	1056.389892578125	-226.2001953125	-1703.829223632812	1144.076293945312	-174.3900604248047	-1441.049438476562	1305.257568359375	-189.6365203857422	-1697.84326171875	1268.85693359375	-159.0404663085938	-1610.005981445312	1523.291381835938	-161.88232421875	-1452.841796875	1426.452270507812	-182.3590240478516	-1690.730590820312	1391.446411132812	-81.26161193847656	-1646.258544921875	1493.0087890625	-269.9512023925781	-1563.942138671875	1487.823608398438	-335.8858032226562	-1621.253540039062	1378.50927734375	-413.4200134277344	-1648.212646484375	1172.854614257812	-449.2566223144531	-1711.678955078125	1163.092529296875	-390.1463012695312	-1568.122192382812	931.2481689453125	-415.0079345703125	-1611.3759765625	918.0054321289062	-487.1009216308594	-1639.221801757812	1064.38134765625	-469.4090881347656	-1576.593505859375	736.0589599609375	-426.9564208984375	-1598.990356445312	828.4221801757812	-486.9895629882812	-1544.799926757812	829.1251831054688	-445.3836975097656	-1534.90234375	1471.946655273438	-2.892565488815308	-1547.855834960938	1407.9736328125	66.14412689208984	-1565.904541015625	1126.31787109375	106.9998321533203	-1619.306030273438	1121.852661132812	28.00788688659668	-1437.006958007812	916.4735717773438	27.02277565002441	-1475.847900390625	897.0003662109375	100.0272750854492	-1535.789916992188	1057.605590820312	110.3947525024414	-1417.603393554688	725.0439453125	11.64131736755371	-1389.798461914062	797.0400390625	30.69404602050781	-1431.787841796875	792.4893188476562	89.19130706787109	-1569.620849609375	1668.292114257812	-132.2272033691406	-1357.984985351562	1710.022705078125	-205.2485961914062	-1369.16748046875	1709.20361328125	-106.1331024169922	-1509.67578125	1674.20703125	-258.7892761230469	-1596.901489257812	996.5162963867188	-363.5923461914062	-1615.913208007812	1002.5791015625	5.70367431640625	-1512.94873046875	1042.521240234375	-29.10490226745605	-1500.325561523438	1033.034057617188	-309.8072509765625	-1420.994018554688	531.225341796875	-306.489990234375	-1466.758544921875	669.7305908203125	-337.2784423828125	-1612.748657226562	82.67160797119141	-338.8721618652344	-1516.275390625	318.8367919921875	-331.4062194824219	-1405.91064453125	67.98417663574219	-276.36669921875	-1475.342163085938	61.78428268432617	-236.6387329101562	-1487.079467773438	67.86489868164062	-350.0820617675781	-1677.26513671875	97.59698486328125	-291.3757629394531	-1612.340576171875	508.7805480957031	-56.5599365234375	-1570.322998046875	773.2816162109375	1.708295464515686	-1724.5537109375	37.55189514160156	-113.3845748901367	-1617.238037109375	392.6234741210938	-81.60366058349609	-1511.274291992188	47.50607681274414	-145.7014617919922	-1564.446166992188	45.15181732177734	-191.2756652832031	-1615.627685546875	39.3870735168457	-81.20491027832031	-1784.389892578125	39.89325332641602	-176.2121734619141	
78	0.77	-1703.536010742188	1049.820434570312	-105.3162612915039	-1702.305419921875	1056.412841796875	-225.9541931152344	-1701.335571289062	1144.22509765625	-173.7955322265625	-1438.7705078125	1304.83837890625	-189.6061401367188	-1695.253051757812	1268.884643554688	-158.1169586181641	-1607.020141601562	1523.182495117188	-161.0252532958984	-1450.00634765625	1426.217895507812	-182.2367706298828	-1687.60888671875	1391.371337890625	-80.12213134765625	-1643.700439453125	1493.08203125	-268.981689453125	-1561.654296875	1487.871337890625	-335.261962890625	-1619.58349609375	1378.762939453125	-412.6098327636719	-1647.461547851562	1173.214111328125	-448.3320617675781	-1710.674438476562	1163.660522460938	-388.9163513183594	-1567.604248046875	931.4689331054688	-414.3297119140625	-1611.2998046875	918.2562866210938	-486.1879577636719	-1638.796997070312	1064.702270507812	-468.4920349121094	-1576.60693359375	736.2787475585938	-426.037109375	-1599.008422851562	828.6184692382812	-486.013671875	-1544.780517578125	829.3369750976562	-444.6893920898438	-1531.284790039062	1471.6123046875	-2.425373792648315	-1543.786865234375	1407.555297851562	66.58946990966797	-1560.503662109375	1125.66455078125	106.9538879394531	-1614.582641601562	1121.17529296875	28.36415863037109	-1431.021484375	916.8978881835938	25.09159088134766	-1468.98583984375	897.0093994140625	98.40538787841797	-1529.958251953125	1057.07373046875	109.8444213867188	-1410.209594726562	725.7208862304688	8.816740989685059	-1382.769897460938	797.8917236328125	27.96337699890137	-1424.369750976562	792.730224609375	86.732421875	-1566.595458984375	1668.068359375	-131.8511352539062	-1354.982299804688	1709.744873046875	-204.9740600585938	-1366.118774414062	1708.983764648438	-105.8428268432617	-1506.659301757812	1673.901489257812	-258.4304504394531	-1594.755249023438	996.831787109375	-363.2931823730469	-1613.832641601562	1002.195434570312	5.952972888946533	-1510.719360351562	1042.241455078125	-28.81758308410645	-1498.013305664062	1033.265502929688	-309.5689086914062	-1415.302856445312	532.8614501953125	-305.5866394042969	-1462.277465820312	670.9364624023438	-336.7465515136719	-1601.28662109375	81.68000793457031	-336.767578125	-1507.896850585938	319.1743774414062	-330.0131225585938	-1394.264526367188	69.32278442382812	-274.4062805175781	-1463.620971679688	62.51507949829102	-234.5981750488281	-1475.505004882812	68.1302490234375	-348.0663757324219	-1666.16162109375	96.52812957763672	-289.4956665039062	-1611.315795898438	508.5897827148438	-56.58051300048828	-1568.567749023438	772.83544921875	1.635550022125244	-1724.53369140625	37.58062362670898	-113.4209823608398	-1616.472534179688	392.3755798339844	-81.63864135742188	-1511.326049804688	47.47222137451172	-145.7248229980469	-1564.443725585938	45.13154220581055	-191.3011474609375	-1615.632934570312	39.4055290222168	-81.21372985839844	-1784.395874023438	39.91402435302734	-176.2469787597656	
